HIERARCHY
ROOT Hips
{
	OFFSET 0.00000 0.00000 0.00000
	CHANNELS 6 Xposition Yposition Zposition Zrotation Yrotation Xrotation 
	JOINT LHipJoint
	{
		OFFSET 0 0 0
		CHANNELS 3 Zrotation Yrotation Xrotation
		JOINT LeftUpLeg
		{
			OFFSET 1.28858 -1.83292 1.03970
			CHANNELS 3 Zrotation Yrotation Xrotation
			JOINT LeftLeg
			{
				OFFSET 2.47846 -6.80952 0.00000
				CHANNELS 3 Zrotation Yrotation Xrotation
				JOINT LeftFoot
				{
					OFFSET 2.75274 -7.56311 0.00000
					CHANNELS 3 Zrotation Yrotation Xrotation
					JOINT LeftToeBase
					{
						OFFSET 0.12848 -0.35301 1.68223
						CHANNELS 3 Zrotation Yrotation Xrotation
						End Site
						{
							OFFSET 0.00000 -0.00000 0.87311
						}
					}
				}
			}
		}
	}
	JOINT RHipJoint
	{
		OFFSET 0 0 0
		CHANNELS 3 Zrotation Yrotation Xrotation
		JOINT RightUpLeg
		{
			OFFSET -1.31183 -1.83292 1.03970
			CHANNELS 3 Zrotation Yrotation Xrotation
			JOINT RightLeg
			{
				OFFSET -2.44740 -6.72417 0.00000
				CHANNELS 3 Zrotation Yrotation Xrotation
				JOINT RightFoot
				{
					OFFSET -2.67343 -7.34519 0.00000
					CHANNELS 3 Zrotation Yrotation Xrotation
					JOINT RightToeBase
					{
						OFFSET -0.16914 -0.46471 1.77626
						CHANNELS 3 Zrotation Yrotation Xrotation
						End Site
						{
							OFFSET -0.00000 -0.00000 0.92777
						}
					}
				}
			}
		}
	}
	JOINT LowerBack
	{
		OFFSET 0 0 0
		CHANNELS 3 Zrotation Yrotation Xrotation
		JOINT Spine
		{
			OFFSET 0.01249 2.14252 0.03842
			CHANNELS 3 Zrotation Yrotation Xrotation
			JOINT Spine1
			{
				OFFSET -0.02957 2.14199 -0.03751
				CHANNELS 3 Zrotation Yrotation Xrotation
				JOINT Neck
				{
					OFFSET 0 0 0
					CHANNELS 3 Zrotation Yrotation Xrotation
					JOINT Neck1
					{
						OFFSET -0.01678 1.65709 -0.05476
						CHANNELS 3 Zrotation Yrotation Xrotation
						JOINT Head
						{
							OFFSET 0.07912 1.58331 -0.11843
							CHANNELS 3 Zrotation Yrotation Xrotation
							End Site
							{
								OFFSET 0.03298 1.73940 -0.04271
							}
						}
					}
				}
				JOINT LeftShoulder
				{
					OFFSET 0 0 0
					CHANNELS 3 Zrotation Yrotation Xrotation
					JOINT LeftArm
					{
						OFFSET 3.39556 1.16496 0.08673
						CHANNELS 3 Zrotation Yrotation Xrotation
						JOINT LeftForeArm
						{
							OFFSET 5.23910 -0.00000 -0.00000
							CHANNELS 3 Zrotation Yrotation Xrotation
							JOINT LeftHand
							{
								OFFSET 3.31467 -0.00000 0.00000
								CHANNELS 3 Zrotation Yrotation Xrotation
								JOINT LeftFingerBase
								{
									OFFSET 0 0 0
									CHANNELS 3 Zrotation Yrotation Xrotation
									JOINT LeftHandIndex1
									{
										OFFSET 0.96590 -0.00000 0.00000
										CHANNELS 3 Zrotation Yrotation Xrotation
										End Site
										{
											OFFSET 0.77873 -0.00000 0.00000
										}
									}
								}
								JOINT LThumb
								{
									OFFSET 0 0 0
									CHANNELS 3 Zrotation Yrotation Xrotation
									End Site
									{
										OFFSET 0.79062 -0.00000 0.79062
									}
								}
							}
						}
					}
				}
				JOINT RightShoulder
				{
					OFFSET 0 0 0
					CHANNELS 3 Zrotation Yrotation Xrotation
					JOINT RightArm
					{
						OFFSET -3.27193 1.31331 0.33940
						CHANNELS 3 Zrotation Yrotation Xrotation
						JOINT RightForeArm
						{
							OFFSET -5.30252 -0.00000 0.00000
							CHANNELS 3 Zrotation Yrotation Xrotation
							JOINT RightHand
							{
								OFFSET -3.67875 -0.00000 0.00000
								CHANNELS 3 Zrotation Yrotation Xrotation
								JOINT RightFingerBase
								{
									OFFSET 0 0 0
									CHANNELS 3 Zrotation Yrotation Xrotation
									JOINT RightHandIndex1
									{
										OFFSET -0.59481 -0.00000 0.00000
										CHANNELS 3 Zrotation Yrotation Xrotation
										End Site
										{
											OFFSET -0.47955 -0.00000 0.00000
										}
									}
								}
								JOINT RThumb
								{
									OFFSET 0 0 0
									CHANNELS 3 Zrotation Yrotation Xrotation
									End Site
									{
										OFFSET -0.48687 -0.00000 0.48687
									}
								}
							}
						}
					}
				}
			}
		}
	}
}
MOTION
Frames: 13
Frame Time: .0083333
13.4845 27.1586 10.2988 31.6313 -68.6942 -29.2553 0.0000 0.0000 0.0000 -33.9806 13.1959 -23.5091 10.1198 17.4767 59.8881 1.5478 11.3963 22.4973 0.2602 3.2820 9.0649 0.0000 0.0000 0.0000 2.3612 12.4927 -29.9563 -14.2733 -19.1948 73.0374 -0.4608 -14.9584 15.0347 -0.0601 -1.5813 4.3498 -0.9619 -2.3159 5.5734 5.0574 -3.3711 4.9532 5.9032 -1.8937 2.3721 -4.9503 -3.8300 -1.0983 10.9125 -6.3285 11.3135 3.8987 -2.9310 4.0350 0.0000 -0.0000 0.0000 1.4176 25.2385 69.8441 8.9858 -15.1378 -1.1964 -0.0000 0.0000 -13.3997 -8.2549 -0.5348 0.0776 -7.1250 0.0000 -0.0000 -26.4187 28.7822 11.6022 0.0000 -0.0000 0.0000 8.7796 -6.0146 -38.8986 -45.4856 51.0042 -22.6156 0.0000 -0.0000 -59.3169 -17.0600 -18.3537 5.5193 7.1250 -0.0000 -0.0000 10.7880 -48.8150 -1.0260
13.5780 27.4965 10.3496 37.6615 -71.4769 -34.8812 0.0000 0.0000 0.0000 -34.6336 12.4650 -26.7853 11.4351 18.1415 64.1865 1.3838 11.6756 21.3787 0.3298 3.6911 10.2093 0.0000 0.0000 0.0000 1.9011 13.8203 -32.8239 -15.9346 -19.5990 78.0367 -0.4703 -13.3697 14.4107 -0.0004 -0.1352 0.3714 -0.8009 -1.9966 6.8664 5.2838 -3.0050 5.7431 6.0863 -1.7496 2.4457 -5.3268 -4.2575 -0.7905 11.2030 -6.9532 11.3700 4.0270 -3.2512 4.0736 -0.0000 0.0000 0.0000 -3.8952 30.4239 67.9408 8.1308 -13.7647 -0.9830 -0.0000 0.0000 -8.9537 -9.8544 -1.4543 0.2526 -7.1250 0.0000 -0.0000 -27.2984 27.8698 12.7645 -0.0000 0.0000 0.0000 11.9967 -4.3881 -37.3472 -42.4946 49.4804 -20.3158 0.0000 -0.0000 -62.1464 -18.0010 -26.2964 8.1916 7.1250 -0.0000 -0.0000 13.1663 -56.9476 -3.9009
13.6713 27.8232 10.4032 44.5222 -74.1141 -41.1057 0.0000 0.0000 0.0000 -34.7196 11.0873 -30.3996 12.8509 18.7277 68.6619 1.2568 11.5253 20.4233 0.3483 3.7922 10.4928 0.0000 0.0000 0.0000 1.7207 15.1407 -35.9524 -17.5640 -19.8571 82.8614 -0.4198 -12.0819 13.3821 -0.0208 0.9317 -2.5610 -0.3868 -1.6910 7.9690 5.5703 -2.6531 6.4778 6.1751 -1.6082 2.5655 -5.5733 -4.7564 -0.5235 11.1781 -7.6354 11.3945 4.0312 -3.6041 4.1039 0.0000 0.0000 0.0000 -9.8286 35.0580 65.5146 7.3771 -12.5383 -0.8115 -0.0000 0.0000 -5.4863 -10.1783 -2.3856 0.4282 -7.1250 0.0000 -0.0000 -27.2901 27.0129 13.3963 0.0000 0.0000 0.0000 14.9157 -2.6866 -35.2107 -39.5048 47.7738 -18.0717 0.0000 -0.0000 -64.3101 -19.5839 -32.8862 10.9333 7.1250 -0.0000 -0.0000 15.9021 -63.7610 -7.3250
13.7647 28.1377 10.4571 52.4812 -76.5640 -48.2295 0.0000 0.0000 0.0000 -34.1337 9.1264 -34.2545 14.3395 19.2138 73.2386 1.1812 10.9584 19.7550 0.3299 3.6912 10.2096 0.0000 0.0000 0.0000 1.8338 16.3509 -39.3178 -19.1531 -19.9828 87.5232 -0.3358 -11.1406 12.1015 -0.0826 1.8536 -5.1013 0.2980 -1.4214 8.9202 5.8758 -2.3399 7.1835 6.1210 -1.4784 2.7406 -5.7600 -5.3338 -0.4284 11.1473 -8.4175 11.4131 4.0126 -3.9960 4.1699 0.0000 0.0000 0.0000 -16.3950 39.0952 62.4609 6.7548 -11.5149 -0.6818 -0.0000 0.0000 -3.0561 -9.3120 -3.2455 0.5319 -7.1250 0.0000 -0.0000 -26.5003 26.2769 13.4372 0.0000 0.0000 0.0000 17.7414 -0.9442 -32.4815 -36.6116 45.9292 -15.9604 0.0000 -0.0000 -65.6057 -21.0005 -36.9252 12.9865 7.1250 -0.0000 -0.0000 18.2867 -67.9850 -10.2312
13.8582 28.4352 10.5100 62.5894 -78.6157 -57.4076 0.0000 0.0000 0.0000 -33.0757 6.7926 -38.1625 15.8415 19.5802 77.7591 1.1563 9.9675 19.4143 0.2769 3.3844 9.3508 0.0000 0.0000 0.0000 2.0179 17.3468 -42.8248 -20.7024 -19.9882 92.0540 -0.2387 -10.5531 10.7081 -0.1990 2.8724 -7.9238 1.0724 -1.1732 9.8395 6.1011 -2.0501 7.8960 5.9267 -1.3543 2.9474 -5.9310 -5.9252 -0.3298 11.2201 -9.2121 11.2855 4.0219 -4.3903 4.1976 0.0000 0.0000 0.0000 -23.6709 42.3835 57.8039 6.1975 -10.5911 -0.5750 -0.0000 0.0000 -0.6177 -7.8994 -4.2246 0.5856 -7.1250 0.0000 -0.0000 -25.3253 25.4450 13.2637 0.0000 0.0000 0.0000 20.6625 0.7736 -29.2620 -33.9936 44.0800 -14.1086 0.0000 -0.0000 -65.9693 -21.8251 -38.3352 13.9500 7.1250 -0.0000 -0.0000 19.0405 -69.5444 -11.3290
13.9519 28.7128 10.5610 75.3071 -80.0605 -69.1966 0.0000 0.0000 0.0000 -31.6546 4.2369 -41.9939 17.3137 19.8261 82.1237 1.1670 8.6154 19.3610 0.2000 2.8798 7.9442 0.0000 0.0000 0.0000 2.1874 18.0564 -46.3818 -22.2130 -19.8822 96.4825 -0.1350 -10.3603 9.2650 -0.4093 4.1070 -11.3779 1.8386 -0.9377 10.8264 6.2130 -1.7721 8.6252 5.6160 -1.2317 3.1458 -6.1457 -6.4972 -0.1904 11.5471 -9.9879 10.9819 4.1192 -4.7707 4.1800 0.0000 0.0000 0.0000 -31.4891 44.7587 51.7706 5.7058 -9.7706 -0.4881 -0.0000 -0.0000 1.5511 -6.1413 -5.2626 0.5654 -7.1250 0.0000 -0.0000 -23.9171 24.5519 12.9318 0.0000 0.0000 0.0000 23.7879 2.4230 -25.7748 -31.7466 42.3442 -12.5698 0.0000 -0.0000 -65.3098 -21.8961 -38.1148 13.9327 7.1250 -0.0000 -0.0000 18.6592 -69.3644 -11.0219
14.0446 28.9804 10.6120 89.7151 -80.7680 -82.7307 0.0000 0.0000 0.0000 -29.9770 1.6005 -45.6333 18.6936 19.9590 86.1779 1.1983 6.9195 19.5543 0.1083 2.1219 5.8426 0.0000 0.0000 0.0000 2.3471 18.4083 -49.8485 -23.6528 -19.6770 100.7357 -0.0246 -10.5718 7.7948 -0.7455 5.5153 -15.3844 2.5845 -0.7128 11.9331 6.2198 -1.4987 9.3609 5.2049 -1.1067 3.2998 -6.4006 -7.0314 0.0203 12.1583 -10.7172 10.4592 4.3171 -5.1263 4.1012 0.0000 0.0000 0.0000 -39.6256 46.0447 43.9438 5.2099 -8.9382 -0.4075 -0.0000 -0.0000 4.4169 -4.7042 -6.5049 0.5341 -7.1250 0.0000 -0.0000 -22.7082 23.4398 12.8042 0.0000 0.0000 0.0000 27.1399 3.9871 -22.4699 -29.9499 40.8504 -11.3768 0.0000 -0.0000 -63.6857 -21.3327 -37.5205 13.3796 7.1250 -0.0000 -0.0000 18.6014 -68.6389 -10.6855
14.1383 29.2244 10.6602 103.5050 -80.7955 -95.6981 0.0000 0.0000 0.0000 -28.0359 -1.1105 -49.1796 19.9905 20.0000 89.9722 1.2302 5.0196 19.9068 0.0341 1.1923 3.2782 0.0000 0.0000 0.0000 2.5285 18.4112 -53.2995 -25.0440 -19.3788 104.8958 0.0975 -11.1942 6.2984 -1.1806 6.8961 -19.4079 3.3161 -0.5015 13.1485 6.1625 -1.2301 10.0797 4.7332 -0.9802 3.3950 -6.6519 -7.5330 0.2649 12.9907 -11.3964 9.7340 4.5884 -5.4574 3.9700 0.0000 0.0000 0.0000 -47.5278 46.2478 37.2466 4.7633 -8.1847 -0.3410 -0.0000 -0.0000 5.7241 -3.5771 -7.5425 0.4701 -7.1250 0.0000 -0.0000 -21.7671 22.4940 12.7029 0.0000 0.0000 0.0000 30.6933 5.4565 -19.5354 -28.4991 39.5717 -10.4401 0.0000 -0.0000 -61.2921 -20.4079 -36.7366 12.5461 7.1250 -0.0000 -0.0000 18.7853 -67.6302 -10.3673
14.2318 29.4511 10.7081 114.8640 -80.2829 -106.2790 0.0000 0.0000 0.0000 -25.9416 -3.8445 -52.6367 21.1791 19.9666 93.4494 1.2483 2.9936 20.3436 0.0001 0.0766 0.2104 0.0000 0.0000 0.0000 2.6916 18.0548 -56.6848 -26.3673 -18.9988 108.9205 0.2329 -12.1174 4.7695 -1.6260 8.0393 -22.8334 3.9981 -0.3029 14.4558 6.0672 -0.9656 10.7642 4.2470 -0.8546 3.4255 -6.8560 -8.0055 0.5224 13.9110 -12.0046 8.7773 4.8868 -5.7598 3.7713 -0.0000 -0.0000 0.0000 -54.7336 45.5018 31.2654 4.3796 -7.5346 -0.2885 -0.0000 -0.0000 6.6751 -3.2026 -8.3984 0.4682 -7.1250 0.0000 -0.0000 -21.3800 21.7002 12.8634 -0.0000 -0.0000 0.0000 34.3362 6.8231 -17.0229 -27.3180 38.4808 -9.6964 0.0000 -0.0000 -58.5158 -19.4332 -35.9642 11.7058 7.1250 -0.0000 -0.0000 19.0728 -66.6245 -10.0949
14.3246 29.6581 10.7573 123.2190 -79.3855 -113.8940 0.0000 0.0000 0.0000 -23.7734 -6.5681 -56.0624 22.2668 19.8763 96.6409 1.2406 0.9870 20.7590 0.0282 -1.0845 -2.9813 0.0000 0.0000 0.0000 2.7630 17.3652 -60.0241 -27.6297 -18.5428 112.8423 0.3795 -13.1782 3.1716 -1.9699 8.8030 -25.1811 4.5916 -0.1205 15.8228 5.9362 -0.7147 11.4115 3.7704 -0.7368 3.4063 -6.9812 -8.4503 0.7700 14.8217 -12.5292 7.6023 5.1778 -6.0316 3.5034 0.0000 0.0000 0.0000 -61.0165 44.0134 26.2596 4.0582 -6.9883 -0.2479 -0.0000 -0.0000 7.5061 -3.5333 -8.9219 0.5487 -7.1250 0.0000 -0.0000 -21.5246 21.2099 13.2255 0.0000 0.0000 0.0000 37.9609 8.0640 -14.8484 -26.3801 37.5815 -9.1185 0.0000 -0.0000 -55.7977 -18.5976 -35.3912 11.0276 7.1250 -0.0000 -0.0000 19.4326 -65.8516 -9.9479
14.4159 29.8445 10.8086 128.8750 -78.2163 -118.8540 0.0000 0.0000 0.0000 -21.5366 -9.2359 -59.5063 23.2590 19.7434 99.5681 1.2142 -0.8051 21.1335 0.0983 -2.0217 -5.5657 0.0000 0.0000 0.0000 2.6961 16.3637 -63.3272 -28.8345 -18.0151 116.6822 0.5275 -14.1991 1.4716 -2.1112 9.0940 -26.0898 5.0571 0.0600 17.2433 5.7875 -0.4665 12.0234 3.3423 -0.6255 3.3414 -7.0617 -8.8914 0.9317 15.6529 -12.9990 6.2742 5.4400 -6.2860 3.1986 0.0000 0.0000 0.0000 -66.3813 41.9252 22.2979 3.7454 -6.4551 -0.2113 -0.0000 -0.0000 8.5383 -4.3088 -9.1539 0.6867 -7.1250 0.0000 -0.0000 -22.0092 20.9881 13.6937 0.0000 0.0000 0.0000 41.4581 9.2979 -13.0616 -25.5654 36.7764 -8.6262 0.0000 -0.0000 -53.2885 -17.9972 -35.0994 10.5807 7.1250 -0.0000 -0.0000 19.8205 -65.4111 -9.9527
14.5045 30.0130 10.8618 132.3210 -76.8197 -121.6640 0.0000 0.0000 0.0000 -19.2623 -11.8199 -62.9667 24.1560 19.5807 102.2335 1.1814 -2.2513 21.4566 0.1592 -2.5704 -7.0849 0.0000 0.0000 0.0000 2.4366 15.0178 -66.5848 -29.9800 -17.4211 120.4448 0.6523 -14.9370 -0.3519 -1.9727 8.8089 -25.1995 5.3333 0.2472 18.7074 5.6263 -0.2244 12.6104 3.0022 -0.5270 3.2451 -7.1428 -9.3045 0.9946 16.4225 -13.3882 4.8167 5.6873 -6.5108 2.8658 0.0000 -0.0000 0.0000 -70.8521 39.4436 19.3620 3.4862 -6.0123 -0.1831 -0.0000 -0.0000 9.6604 -5.1530 -9.0475 0.8125 -7.1250 0.0000 -0.0000 -22.5879 21.0780 14.0666 0.0000 -0.0000 0.0000 44.6921 10.6115 -11.5754 -24.7813 35.9797 -8.1611 0.0000 -0.0000 -51.1458 -17.6736 -35.0972 10.3816 7.1250 -0.0000 -0.0000 20.1899 -65.3181 -10.1017
14.5893 30.1648 10.9154 134.0360 -75.1796 -122.8170 0.0000 0.0000 0.0000 -16.9954 -14.2504 -66.4261 24.9563 19.4006 104.6317 1.1605 -3.2455 21.7560 0.1532 -2.5218 -6.9500 0.0000 0.0000 0.0000 1.9060 13.2722 -69.8017 -31.0664 -16.7648 124.1396 0.7162 -15.1169 -2.2668 -1.5297 7.8088 -22.1349 5.3365 0.4531 20.2051 5.4377 0.0057 13.1846 2.7814 -0.4491 3.1315 -7.2297 -9.6751 0.9718 17.1342 -13.6843 3.2419 5.9238 -6.7004 2.5042 -0.0000 -0.0000 0.0000 -74.6086 36.5429 17.2938 3.1334 -5.4084 -0.1480 -0.0000 -0.0000 11.3003 -5.9938 -9.1094 0.9523 -7.1250 0.0000 -0.0000 -23.1347 21.0091 14.5106 -0.0000 -0.0000 0.0000 47.5792 12.1217 -10.3367 -23.9281 35.0881 -7.6652 0.0000 -0.0000 -49.3048 -17.5747 -35.2338 10.3553 7.1250 -0.0000 -0.0000 20.4468 -65.4162 -10.2814
